<svg width="200" height="100" viewBox="0 0 200 100" fill="none" xmlns="http://www.w3.org/2000/svg">
  <g>
    <path d="M113.376 36.8H119.04V63.2H113.376V36.8Z" fill="#D3201A"/>
    <path d="M128.576 36.8H145.696V42.4H134.24V48.8H143.36V54.4H134.24V57.6H146.176V63.2H128.576V36.8Z" fill="#D3201A"/>
    <path d="M152.896 36.8H158.56L166.4 55.2L174.24 36.8H179.904L168.32 63.2H162.656L152.896 36.8Z" fill="#D3201A"/>
    <path d="M55.6224 36.8H63.1424C65.1424 36.8 66.7424 37.0667 67.9424 37.6C69.1424 38.1333 69.9424 39.0667 70.3424 40.4C70.7424 41.7333 70.9424 43.3333 70.9424 45.2C70.9424 47.0667 70.7424 48.6667 70.3424 49.9999C69.9424 51.3333 69.1424 52.2667 67.9424 52.8C66.7424 53.3333 65.1424 53.6 63.1424 53.6H55.6224V36.8ZM61.3024 48.8C62.4024 48.8 63.1424 48.4667 63.5024 47.8C63.8624 47.1333 64.0424 45.9333 64.0424 44.2C64.0424 42.4667 63.8624 41.3333 63.5024 40.8C63.1424 40.2667 62.4024 40 61.3024 40H59.6224V48.8H61.3024Z" fill="#D3201A"/>
    <path d="M83.3622 36.8L87.1222 63.2H81.1222L79.9422 54.4H73.8222L72.6422 63.2H66.8422L70.6022 36.8H83.3622ZM77.3222 48.8L75.7822 43.8667C75.5922 42.9333 75.4022 42.0667 75.2122 41.2C75.0222 40.3333 74.8622 39.6 74.7322 39V39.0667H74.6222C74.4922 39.6667 74.3122 40.3333 74.0822 41.0667C73.8522 41.8 73.5922 42.5333 73.3022 43.2667L71.8022 48.8H77.3222Z" fill="#D3201A"/>
    <path d="M91.3452 36.8H97.4572V63.2H91.3452V36.8Z" fill="#D3201A"/>
    <path d="M126.36 39H103.06V43.5333H114.52V54.3333H103.06V58.5H127.18V63.2H98.1102V36H127.88V39H126.36Z" fill="#FACC15"/>
    <path d="M5.80298 50.8C5.80298 52.4 5.94298 53.8667 6.22298 55.2C6.50298 56.5333 7.02298 57.6667 7.78298 58.6C8.54298 59.5333 9.54298 60.2 10.782 60.6C12.022 61 13.502 61.2 15.222 61.2C17.222 61.2 18.822 60.9333 20.022 60.4C21.222 59.8667 22.062 59.0667 22.542 58C23.022 56.9333 23.262 55.5333 23.262 53.8V36H18.182V53.0667C18.182 54.6667 17.542 55.7333 16.262 56.2667C14.982 56.8 13.222 57.0667 11.022 57.0667C9.22298 57.0667 7.86298 56.7333 6.94298 56.0667C6.02298 55.4 5.54298 54.4 5.50298 53C5.46298 51.8 5.80298 50.8 5.80298 50.8Z" fill="#FACC15"/>
  </g>
</svg>