<svg width="44" height="30" viewBox="0 0 44 30" fill="none" xmlns="http://www.w3.org/2000/svg">
<rect x="0.141663" width="43.5302" height="30" rx="4" fill="white"/>
<g clip-path="url(#clip0_247_79)">
<path d="M18.9547 18.4476L20.1746 11.5905H22.0807L20.8989 18.4476H18.9547Z" fill="#3C58BF"/>
<path d="M18.9547 18.4476L20.5177 11.5905H22.0807L20.8989 18.4476H18.9547Z" fill="#293688"/>
<path d="M27.799 11.6667C27.4177 11.5143 26.8078 11.3619 26.0454 11.3619C24.1393 11.3619 22.7669 12.3143 22.7669 13.6857C22.7669 14.7143 23.7199 15.2477 24.4824 15.5905C25.2448 15.9334 25.4735 16.1619 25.4735 16.4667C25.4735 16.9238 24.8636 17.1524 24.3299 17.1524C23.5675 17.1524 23.1481 17.0381 22.5 16.7715L22.2332 16.6572L21.9663 18.2191C22.4238 18.4096 23.2625 18.6 24.1393 18.6C26.1597 18.6 27.494 17.6477 27.494 16.2C27.494 15.4 26.9984 14.7905 25.8548 14.2953C25.1686 13.9524 24.7492 13.7619 24.7492 13.4191C24.7492 13.1143 25.0923 12.8096 25.8548 12.8096C26.5028 12.8096 26.9603 12.9238 27.3034 13.0762L27.494 13.1524L27.799 11.6667Z" fill="#3C58BF"/>
<path d="M27.799 11.6667C27.4177 11.5143 26.8078 11.3619 26.0454 11.3619C24.1393 11.3619 23.11 12.3143 23.11 13.6857C23.11 14.7143 23.7199 15.2477 24.4824 15.5905C25.2448 15.9334 25.4735 16.1619 25.4735 16.4667C25.4735 16.9238 24.8636 17.1524 24.3299 17.1524C23.5675 17.1524 23.1481 17.0381 22.5 16.7715L22.2332 16.6572L21.9663 18.2191C22.4238 18.4096 23.2625 18.6 24.1393 18.6C26.1597 18.6 27.494 17.6477 27.494 16.2C27.494 15.4 26.9984 14.7905 25.8548 14.2953C25.1686 13.9524 24.7492 13.7619 24.7492 13.4191C24.7492 13.1143 25.0923 12.8096 25.8548 12.8096C26.5028 12.8096 26.9603 12.9238 27.3034 13.0762L27.494 13.1524L27.799 11.6667Z" fill="#293688"/>
<path d="M31.0772 11.5905C30.6197 11.5905 30.2766 11.6285 30.086 12.0857L27.2269 18.4476H29.2854L29.6667 17.3047H32.1064L32.3352 18.4476H34.165L32.5639 11.5905H31.0772ZM30.2004 16.1619C30.3147 15.819 30.9628 14.1428 30.9628 14.1428C30.9628 14.1428 31.1153 13.7238 31.2296 13.4571L31.344 14.1047C31.344 14.1047 31.7252 15.819 31.8015 16.2H30.2004V16.1619Z" fill="#3C58BF"/>
<path d="M31.5346 11.5905C31.0772 11.5905 30.7341 11.6285 30.5435 12.0857L27.2269 18.4476H29.2854L29.6667 17.3047H32.1064L32.3352 18.4476H34.165L32.5639 11.5905H31.5346ZM30.2004 16.1619C30.3528 15.7809 30.9628 14.1428 30.9628 14.1428C30.9628 14.1428 31.1153 13.7238 31.2296 13.4571L31.344 14.1047C31.344 14.1047 31.7252 15.819 31.8015 16.2H30.2004V16.1619Z" fill="#293688"/>
<path d="M15.4479 16.3904L15.2573 15.4C14.9142 14.2571 13.8087 13 12.5888 12.3904L14.3043 18.4857H16.3628L19.4507 11.6285H17.3921L15.4479 16.3904Z" fill="#3C58BF"/>
<path d="M15.4479 16.3904L15.2573 15.4C14.9142 14.2571 13.8087 13 12.5888 12.3904L14.3043 18.4857H16.3628L19.4507 11.6285H17.7733L15.4479 16.3904Z" fill="#293688"/>
<path d="M10.1486 11.5905L10.4917 11.6666C12.9315 12.2381 14.6089 13.6857 15.2569 15.4L14.5707 12.1619C14.4564 11.7047 14.1133 11.5905 13.6939 11.5905H10.1486Z" fill="#FFBC00"/>
<path d="M10.1486 11.5905C12.5884 12.1619 14.6089 13.6476 15.2569 15.3619L14.6089 12.6571C14.4945 12.2 14.1133 11.9333 13.6939 11.9333L10.1486 11.5905Z" fill="#F7981D"/>
<path d="M10.1486 11.5905C12.5884 12.1619 14.6089 13.6476 15.2569 15.3619L14.7995 13.8762C14.6851 13.419 14.5326 12.9619 13.9989 12.7714L10.1486 11.5905Z" fill="#ED7C00"/>
<path d="M17.354 16.1619L16.0578 14.8667L15.4479 16.3143L15.2954 15.3619C14.9523 14.2191 13.8468 12.9619 12.6269 12.3524L14.3424 18.4477H16.4009L17.354 16.1619ZM20.8993 18.4477L19.2601 16.7715L18.9551 18.4477H20.8993ZM25.2833 16.0857C25.4358 16.2381 25.512 16.3524 25.4739 16.5048C25.4739 16.9619 24.864 17.1905 24.3303 17.1905C23.5678 17.1905 23.1485 17.0762 22.5004 16.8096L22.2336 16.6953L21.9667 18.2572C22.4242 18.4477 23.2628 18.6381 24.1396 18.6381C25.3595 18.6381 26.3507 18.2953 26.9225 17.6858L25.2833 16.0857ZM27.4944 18.4477H29.2861L29.6673 17.3048H32.1071L32.3358 18.4477H34.1656L33.5176 15.6667L31.2303 13.4572L31.3446 14.0667C31.3446 14.0667 31.7259 15.781 31.8021 16.1619H30.201C30.3535 15.781 30.9634 14.1429 30.9634 14.1429C30.9634 14.1429 31.1159 13.7238 31.2303 13.4572" fill="#051244"/>
</g>
<defs>
<clipPath id="clip0_247_79">
<rect width="24.0167" height="24" fill="white" transform="translate(10.1486 3)"/>
</clipPath>
</defs>
</svg>
